<svg width="512" height="512" viewBox="0 0 512 512" fill="none" xmlns="http://www.w3.org/2000/svg">
<path d="M213.333 440.889C213.333 472.306 202.084 497.778 170.667 497.778H71.1111C14.2222 497.778 14.2222 298.667 71.1111 298.667H170.667C202.084 298.667 213.333 324.139 213.333 355.556V440.889Z" fill="#553788"/>
<path d="M483.556 469.333H469.333V327.111H483.556C491.42 327.111 497.778 320.754 497.778 312.889C497.778 305.024 491.42 298.667 483.556 298.667H142.222C85.3333 298.667 85.3333 497.778 142.222 497.778H483.556C491.42 497.778 497.778 491.42 497.778 483.556C497.778 475.691 491.42 469.333 483.556 469.333Z" fill="#9266CC"/>
<path d="M486.002 469.333H156.444C128 469.333 128 327.111 156.444 327.111H486.002C501.703 327.111 501.703 469.333 486.002 469.333Z" fill="#CCD6DD"/>
<path d="M163.556 355.556H495.645C493.725 338.844 490.525 327.111 486.002 327.111H156.445C132.964 327.111 128.882 423.936 144.171 457.785C138.596 415.701 145.053 355.556 163.556 355.556Z" fill="#99AAB5"/>
<path d="M170.667 113.778C170.667 145.195 145.195 170.667 113.778 170.667H56.8889C6.67572e-06 170.667 6.67572e-06 14.2222 56.8889 14.2222H113.778C145.195 14.2222 170.667 39.6942 170.667 71.1111V113.778Z" fill="#226699"/>
<path d="M440.889 142.222H426.667V42.6667H440.889C448.754 42.6667 455.111 36.3093 455.111 28.4445C455.111 20.5796 448.754 14.2222 440.889 14.2222H99.5556C42.6667 14.2222 42.6667 170.667 99.5556 170.667H440.889C448.754 170.667 455.111 164.309 455.111 156.444C455.111 148.58 448.754 142.222 440.889 142.222Z" fill="#55ACEE"/>
<path d="M443.335 142.222H113.778C85.3333 142.222 85.3333 42.6667 113.778 42.6667H443.335C459.036 42.6667 459.036 142.222 443.335 142.222Z" fill="#CCD6DD"/>
<path d="M113.778 71.1111H454.044C452.423 55.1111 448.868 42.6667 443.335 42.6667H113.778C96.8106 42.6667 90.0408 78.0658 93.3262 106.667C95.5448 87.3529 102.3 71.1111 113.778 71.1111Z" fill="#99AAB5"/>
<path d="M284.444 241.778C284.444 273.195 258.972 298.667 227.556 298.667H85.3334C28.4445 298.667 28.4445 170.667 85.3334 170.667H227.556C258.972 170.667 284.444 196.139 284.444 227.556V241.778Z" fill="#F4900C"/>
<path d="M497.778 270.222H483.556V199.111H497.778C505.643 199.111 512 192.754 512 184.889C512 177.024 505.643 170.667 497.778 170.667H213.333C156.444 170.667 156.444 298.667 213.333 298.667H497.778C505.643 298.667 512 292.309 512 284.444C512 276.58 505.643 270.222 497.778 270.222Z" fill="#FFAC33"/>
<path d="M500.224 270.222H227.556C199.111 270.222 199.111 199.111 227.556 199.111H500.224C515.925 199.111 515.925 270.222 500.224 270.222Z" fill="#CCD6DD"/>
<path d="M227.555 227.556H511.772C510.848 212.452 507.022 199.111 500.224 199.111H227.555C209.436 199.111 202.908 227.94 207.886 248.889C210.702 236.956 217.23 227.556 227.555 227.556Z" fill="#99AAB5"/>
<path d="M425.759 388.232L405.649 408.342L370.449 373.142L390.559 353.032L425.759 388.232Z" fill="#9AAAB4"/>
<path d="M477.635 420.005L435.828 378.198C430.275 372.645 421.272 372.645 415.718 378.198L395.608 398.309C390.054 403.862 390.054 412.865 395.608 418.419L437.414 460.225C448.522 471.34 466.541 471.34 477.649 460.225C488.742 449.125 488.735 431.112 477.635 420.005Z" fill="#66757F"/>
<path d="M327.612 406.202C380.631 406.202 423.612 363.221 423.612 310.202C423.612 257.182 380.631 214.202 327.612 214.202C274.592 214.202 231.612 257.182 231.612 310.202C231.612 363.221 274.592 406.202 327.612 406.202Z" fill="#8899A6"/>
<path d="M327.612 377.757C364.921 377.757 395.167 347.512 395.167 310.202C395.167 272.892 364.921 242.646 327.612 242.646C290.302 242.646 260.056 272.892 260.056 310.202C260.056 347.512 290.302 377.757 327.612 377.757Z" fill="#BBDDF5"/>
</svg>
